<?xml version="1.0" encoding="UTF-8"?>
<!DOCTYPE svg PUBLIC "-//W3C//DTD SVG 1.1//EN" "http://www.w3.org/Graphics/SVG/1.1/DTD/svg11.dtd">
<!-- Creator: CorelDRAW 2020 (64 Bit) -->
<svg xmlns="http://www.w3.org/2000/svg" xml:space="preserve" width="75.048mm" height="59.515mm" version="1.1" style="shape-rendering:geometricPrecision; text-rendering:geometricPrecision; image-rendering:optimizeQuality; fill-rule:evenodd; clip-rule:evenodd"
viewBox="0 0 7504.8 5951.5"
 xmlns:xlink="http://www.w3.org/1999/xlink"
 xmlns:xodm="http://www.corel.com/coreldraw/odm/2003">
 <defs>
  <style type="text/css">
   <![CDATA[
    .fil0 {fill:#FEFEFE}
   ]]>
  </style>
 </defs>
 <g id="Camada_x0020_1">
  <metadata id="CorelCorpID_0Corel-Layer"/>
  <path class="fil0" d="M860.26 40.43c-1091,251.44 -842.77,1425.44 -842.77,2514.91 0,552.68 0,1105.37 0,1658.05 0,584.77 -111.08,1454.27 792.79,1693.4 254.74,67.4 5595.13,60.7 5837.72,9.58 1089.65,-229.63 820.56,-1581.89 820.56,-2514.36 0,-552.69 0.24,-1105.38 -0.15,-1658.06 -0.43,-600.57 87.12,-1006.01 -289.56,-1389.57 -405.58,-412.99 -717.27,-337.96 -1319.21,-337.93 -638.42,0.03 -4725.89,-39.05 -4999.38,23.98zm5598.3 550.61l-5431.48 0.33c74.46,119.35 509.53,520.95 640.83,652.29 226.51,226.57 426.34,426.75 653.24,652.05 226.71,225.11 424.91,428.89 652.5,652.86 456.51,449.27 683.4,884.69 1187.02,354.08 115.34,-121.51 213.74,-217.27 333.59,-336.77l1964.3 -1974.84zm-5868.83 764.85l-0.18 3457.23c0.02,607.73 507.49,551.6 966.2,551.23l3951.11 0.05c711.05,-0.12 1389.57,128.2 1389.57,-551.28l-0.64 -3786.85c-93.23,45.17 -42.32,12.53 -122.66,79.92l-2080.03 2081.63c-218,219.76 -443.84,526.78 -950.54,524.36 -507,-2.43 -708.71,-280.82 -932.03,-506.63l-1816.32 -1817.26c-122.98,-123.35 -249.05,-285.49 -403.5,-362.08l-0.98 329.68z"/>
 </g>
</svg>
