<?xml version="1.0" encoding="UTF-8"?>
<!DOCTYPE svg PUBLIC "-//W3C//DTD SVG 1.1//EN" "http://www.w3.org/Graphics/SVG/1.1/DTD/svg11.dtd">
<!-- Creator: CorelDRAW 2020 (64 Bit) -->
<svg xmlns="http://www.w3.org/2000/svg" xml:space="preserve" width="700mm" height="200mm" version="1.1" style="shape-rendering:geometricPrecision; text-rendering:geometricPrecision; image-rendering:optimizeQuality; fill-rule:evenodd; clip-rule:evenodd"
viewBox="0 0 70000 20000"
 xmlns:xlink="http://www.w3.org/1999/xlink"
 xmlns:xodm="http://www.corel.com/coreldraw/odm/2003">
 <defs>
  <style type="text/css">
   <![CDATA[
    .fil0 {fill:#010101}
    .fil1 {fill:#131313}
    .fil2 {fill:#626563}
   ]]>
  </style>
 </defs>
 <g id="Camada_x0020_1">
  <metadata id="CorelCorpID_0Corel-Layer"/>
  <g id="_2369701629552">
   <path class="fil0" d="M13529.03 8910.24l0 -3950.62 -989.62 -103.86c-419.77,-32.92 -997.95,-59.06 -1407.64,-16.63 -132.55,13.73 -248.24,-16.39 -248.24,120.49l0 8148.14c0,81.28 24.54,105.82 105.82,105.82l3386.24 0c8.13,-365.17 448.93,-1745.2 635.85,-2115.46 114.34,-226.52 69.61,-524.8 69.61,-882.77l0 -2786.59c0,-368.41 -61.58,-723.91 105.83,-846.57 46.21,198.38 -37.09,468.69 -35.51,775.79l0.23 4515.22c0.01,150.74 -36.56,1199.47 32.8,1272.31 118.12,124.04 2155.67,68.07 2471.61,68.07l26.08 -2371.23c37.78,-473.21 136.12,-613.76 64.91,-821.3 -52.11,-151.85 -90.99,-209.51 -90.99,-405.35l0 -3139.33c0,-311.28 28.09,-494.75 34.93,-776.35 6.25,-257.32 87.74,-483.69 106.16,-705.13 -154.6,-103.53 -372.19,-140.67 -561.4,-136.56 -364.79,7.92 -998.17,12.85 -1314.43,-33.45 -240.87,-35.27 -397.8,-76.9 -663.85,-76.9 -135.42,581.26 -380.97,766.8 -470.12,976.08 -102.59,240.81 -71.93,303.72 -230.24,510.5 -136.35,178.09 -241.27,566.78 -282.44,811.04 -64.74,384.07 -187.77,783.33 -358.03,1123.45l-273.39 643.71c-87.88,143.1 -10,59.77 -114.17,97.48z"/>
   <path class="fil0" d="M32647.19 8945.51l0 -3950.62c-301.27,-144.55 -1739.67,-176.36 -2257.5,-176.36 -195.82,0 -209.17,35.27 -388,35.27l0 8359.78 3386.24 0c136.37,0 111.12,-168.58 148.12,-310.42 232.95,-892.84 293.93,-988.74 589.24,-1809.36 90.23,-250.75 38.71,-3181.64 38.65,-3770.86 -0.04,-370.18 -55.57,-620.7 176.37,-776.02 49.81,103.81 -18.84,310.74 -61.43,432.39 -3.76,10.74 -17.18,38.89 -20.73,49.82 -27.93,85.73 -24.87,78.34 -26.28,185.37 -11.64,884.39 37.89,1642.99 37.89,2507.02 0,482.12 -57.5,3228.15 35.28,3421.52 202.86,97.34 1065.17,35.35 1375.66,35.27 1024.28,-0.26 1103.66,239.91 1094.7,-280.96 -5.73,-333.1 -17.19,-1836.03 23.19,-2128.48 115.66,-837.48 116.4,-455.23 -3.69,-891.7 -46.47,-168.86 -21.47,-2166.6 -20.26,-2378.34 1.5,-262.35 -36.85,-371.13 -36.32,-634.09 0.54,-265.06 37.69,-404.01 36.83,-634.3 -1.75,-464.23 104.84,-842.56 104.84,-1270.82 -309.97,-148.73 -1286.15,-93.68 -1868.61,-141.97 -239.89,-19.89 -358.55,-69.67 -635.8,-69.67 -107.89,463.1 -443.28,907.5 -479.96,1001.52 -361.57,926.79 -254.58,215.62 -587.5,1634.72 -33.12,141.19 -107.86,443.44 -166.87,573.87l-494.06 987.42z"/>
   <path class="fil0" d="M54199.21 5665.09c0,718.31 29.22,1278.16 -68.3,1977.56 -100.24,718.95 -78.92,370.72 138.85,667.94 -28.7,123.19 -70.55,118.77 -70.55,246.91l0 4691.36 866.95 20.39c145.83,-5.55 159.8,19.34 331.86,17.21 173.74,-2.15 288.31,-38.21 705.97,-37.59 286.84,0.43 442.85,-16.89 702.4,-38.33 611.92,-50.55 461.6,4.53 461.6,-384.96l0 -3104.06c0,-148.96 25.63,-196.14 28.27,-285.48 5.46,-184.47 -52.71,-495.33 -12.18,-1030.54l1.58 -298.14c-10.18,-156.91 -75.41,-275.95 -105.54,-416.27 -36.29,-168.99 39.97,-359.16 51.43,-545.7l106.99 -1268.66c53.61,230.12 27.36,403.54 32.29,673.18 3.1,169.42 -1.51,169.64 101.03,251.7l214.86 173.14c57.1,46.11 38.61,21.53 98.64,77.73 7.49,7 27.63,28.44 34.59,35.96l32.51 38.03c297.95,350.59 643.32,766.85 181.8,1280.19l-72.93 68.16c-114.14,98.14 -587.52,415.97 -587.52,505.96l0 1516.76c0,114.1 191.58,199.9 350.45,390.29 482.19,577.87 493.51,1198.2 429.06,1905.97 -10.25,112.6 0.4,115.92 -25.92,220.99 -34.19,136.44 -44.42,67.8 -48.12,234.07l2716.05 0c116.65,0 142.61,146.72 205.92,-323.17 117.64,-873.16 130.15,-1796.37 -514.37,-2437.16 -186.87,-185.79 -462.93,-418 -749.75,-484.82l0 -105.82c163.95,-38.2 775.13,-427.01 951.92,-529.56 91.05,-52.81 143.72,-73.52 169.27,-183.46 95.62,-411.35 113.38,-1175.93 113.38,-1615.02 0,-830.69 -369.17,-1731.68 -1082.4,-2162.76 -109.19,-66 -108.25,-82.46 -217.63,-135.1 -138.35,-66.58 -366.82,-158.86 -529.28,-211.46 -430.34,-139.33 -1042.16,-183.22 -1512.15,-156.53 -256.88,14.59 -152.72,126.95 -362.25,267.26 0,-367.55 71.32,-246.91 -1058.2,-246.91l-1128.98 -70.32c-152.78,-8.63 -310.91,-63.88 -382.48,-57.6l-500.33 107.9c-52.55,6.86 -66.56,-29.27 -112.65,47.72 -69.34,115.82 113.86,536.86 113.86,713.04z"/>
   <path class="fil0" d="M39807.68 6335.28c0,363.37 -105.82,685.87 -105.82,1022.93 104.12,49.96 113.02,39.78 211.64,105.82 -13.21,158.76 -211.64,460.76 -211.64,529.1 0,190.27 105.82,346.64 105.82,423.28 0,79.39 -105.82,214.79 -105.82,317.46 0,140.35 37.78,136.35 21.75,268.76 -11.2,92.52 -42.55,178.61 -43.1,257.38 -0.85,123.64 23.51,361.39 47.03,541.62 88.3,676.47 117.61,2170.62 24.9,2827.62 -6.62,46.95 -49.48,406.41 -48.99,410.05 18.64,137.34 175.89,117.02 321.79,133.09 895.48,98.63 829.86,76.47 1722.48,76.47l0 70.54c-399.35,33.24 -448.53,105.83 -1093.48,105.83 -230.41,0 -340.57,-70.55 -776.01,-70.55 0,701.14 -189.59,987.55 -64.05,2044.96l2850.64 0.89c81.28,0 105.82,-24.54 105.82,-105.82 0,-555.56 71.3,-1532.66 -141.09,-1975.31 -232.17,0 -351.19,-20.46 -529.1,-35.27l0 -70.55c119.59,-2.66 203.87,-26.7 348.42,-42.39l392.32 -28.15c0,-399.93 -105.82,-906.27 -105.82,-1552.03 0,-222.86 40.93,-175.69 10.84,-396.44 -20.58,-150.98 -18.18,-323.89 4.04,-470.51 72.85,-480.44 -36.77,-1515.15 102.57,-2367.74 92.34,-565 -200.91,-127.93 -97.19,-801.26 23.85,-154.83 12.02,-303.25 34.58,-459.48 82.81,-573.5 117.18,-374.54 0.99,-816.1 -210.29,-799.15 44.91,-1373.9 49.99,-1602.05l-3033.51 0c-182.19,0 -70.39,159.5 -80.75,307.12 -37.04,527.68 80.75,794.42 80.75,1350.73z"/>
   <path class="fil0" d="M18714.21 13354.68c-126.23,87.71 -131.48,40.25 -245.81,71.65 -148.16,40.68 -89.05,7.72 -163.75,506.44 -18.14,121.12 -6.3,214.84 -19.15,333.67 -31.28,289.33 1.27,975.43 111.25,1204.64l2786.6 0 33.09 -564.25c21.53,-449.63 -33.09,-794.66 -33.09,-1305.24 -406.77,33.85 65.69,295.88 -607.66,78.56 -131.33,-42.39 -191.91,-57.26 -335.59,-87.7 -220.78,-46.77 -467.25,-131.95 -749.88,-131.95l973.24 -120.24c933.77,-134.25 846.94,-13.84 839.26,-307.14l4.9 -303.22c-1.09,-29.3 -1.98,-144.57 -1.94,-155.13 2.99,-814.23 -72.76,-4484.85 -1.63,-4954.76 42.72,-282.19 42.72,-664.69 0,-946.88 -35.41,-233.97 -17.23,-1093.94 -15.41,-1432.44 0.92,-170.56 78.63,-351.62 -70.02,-351.62l-2857.14 0c-163.24,0 -106.45,281.56 -105.87,458.51l5.75 7738.48c-2.98,39.62 -12.37,88.82 -9.26,128.77 15.27,195.68 101.44,139.85 462.11,139.85z"/>
   <path class="fil0" d="M50954.06 13742.69l0 -105.82c137.33,11.42 415.76,102.53 176.57,352.93 -261.7,273.95 -404.95,515.12 -399.43,911.66 3.49,251.44 -7.46,438.35 183.74,445.95l709.32 -17.42c305.41,0 554.24,4.66 813.31,-33.25l739.46 -40.35c143.79,7.23 268.85,-4.68 408.86,16.73 147.59,22.56 249.32,56.87 401.68,56.87 23.25,-109.77 -1.33,-296.47 0.02,-493.82 2.05,-299.62 35.4,-306.76 -90.44,-509.23 -124.06,-199.61 -262.31,-590.07 -262.31,-901.71 -398.37,33.15 2.67,273.73 -820.75,115.27 -239.36,-46.06 -696.21,-147.48 -801.83,-291.64 281.08,0 482.9,-104.35 774.57,-107.27 279.44,-2.8 676.71,37.73 848.01,1.45 0,-476.01 -28.63,-724.56 -114.29,-1120.28 -89.41,-413.06 -271.25,-1148.58 -274.29,-1595.2 -3.49,-514.44 -346.48,-1337.1 -336.03,-2097.83 2.47,-179.52 -28.39,-294.29 -51.41,-512.97 -58.77,-558.37 -197.93,-889.5 -209.4,-1060.44 -52.62,-784.45 -354.97,-743.4 -354.97,-2149.43 -274.25,0 -972.11,7.35 -1165.54,-71.94 -346.86,-142.18 -164.3,63.84 -527.58,71.94 17.77,213.52 94.93,154.6 141.09,352.73 -424.45,447.46 13.79,56.64 -308.88,890.42 -179.94,464.98 -63.58,1248.6 -123.8,1710.41 -27.29,209.23 -140.12,932.85 -108.87,1113.68 41.39,239.55 113.81,299.12 119.67,552.16 20.22,872.55 -13.3,428.02 78.8,1191.05 18.16,150.47 57.99,403.12 86.84,548.33 59.94,301.57 164.42,327.15 -128.76,344.48 -521.29,30.81 -726.28,761.07 -744.34,1162.1l-34.68 635.51c297.37,199.14 267.86,16.34 798.55,189.11 584.99,190.46 242.89,222.01 577.11,445.82z"/>
   <path class="fil0" d="M6686 4994.89l-0.02 1869.51c-0.42,343.44 36.1,543.95 35.33,881.77 -1.03,452.07 17.63,867.48 -59.84,1315.91 -121.46,703.1 25.6,247.26 24.54,1047.43 -0.32,238.31 -19.9,496.32 14.87,725.87 45.6,301.09 -2.1,437.24 -14.23,685.74 -31.94,654.42 -135.7,382.31 -10.29,961.36 216.12,997.82 -298.5,899.93 500.49,887.57 325.93,-5.04 537.55,61.87 670.19,54.45 231.38,-12.94 41.81,-37.19 445.72,-21.68 204.02,7.83 213.54,-48.14 650.73,-48.14 137.37,0 77.29,28.3 200.96,19.64 45.25,-3.17 123.65,-17.73 219.96,-20.44 267.49,-7.5 180.45,27.07 496.19,0.8l0 -8500.88 -690.55 -93.42 -796.04 123.58 -1335.92 4.48c-163.08,-2.2 -352.09,-47.2 -352.09,106.45z"/>
   <path class="fil0" d="M25839.43 4889.07c-26.88,322.99 -58.03,836.13 -20.82,1214.7 41.7,424.13 57.52,2388.15 -24.03,2796.89 -167.97,841.95 44.85,659.46 44.85,1032.5l0 1481.48c0,180.8 -43.18,245.83 -65.45,393.11 -61.51,406.75 -65.49,411.59 35.87,765.22 37.4,130.49 31.74,216.71 29.69,393.59 -6.88,595.16 -26.08,388.12 423.17,388.12 153.79,0 198.09,61.23 527.01,71.2 238.34,7.23 670.82,13.54 889.17,-46.68l1088.23 -24.52c110.38,0 211.64,91.84 211.64,-70.55l0 -8253.96c0,-95.27 -16.84,-97.26 -35.27,-176.37 -311.99,0 -470.53,-121.31 -666.66,-85.63 -1191.37,216.74 -1236.23,120.9 -2437.4,120.9z"/>
   <path class="fil0" d="M1183.35 5277.08l0 8077.6c314.81,0 490.52,35.27 811.29,35.27 466.27,0 2001.13,15.77 2328.04,-141.09 0,-312.44 -117.17,-615.53 -77.32,-850.44 116.82,-688.6 77.32,-1797.88 77.32,-2535.8 0,-507.28 -70.55,-946.92 -70.55,-1552.03 0,-668.76 123.69,-965.02 47.66,-1805.79 -47.39,-524.09 22.89,-1173.91 22.89,-1651 -582.25,0 -1608.97,-20.81 -2088.2,14.37 -339.78,24.93 -219.27,-14.37 -522.03,-14.37 -36.37,75.8 -86.53,311.8 -139.36,354.94 -61.45,50.18 -89.56,33.71 -200.32,42.5 -98.25,7.79 -75.82,1.78 -189.42,25.84z"/>
   <path class="fil0" d="M61465.52 4994.89l0 8253.97c0,173.58 401.76,105.26 741.67,105.1l521.05 10.53c553.72,-21.57 814.85,9.96 1389.05,-74.09 153.39,-22.46 217.83,-41.54 381.74,-41.54l20.57 -237.12c19.01,-328.08 32.1,-764.26 -11.74,-1078.47l-10.23 -2213.15c2.34,-189.74 31.98,-207.81 37.94,-385.56l-8.82 -3328.46c22.72,-372.51 -27.72,-317.94 -27.72,-623.2 0,-178.47 122.51,-493.83 -70.54,-493.83l-2857.15 0c-81.27,0 -105.82,24.55 -105.82,105.82z"/>
   <path class="fil0" d="M21465.53 9756.8l0 634.92c0,83.62 35.28,128.02 35.28,211.64l44.55 731.46c65.54,526.86 121.17,891.81 258.24,1434.88 69.39,274.9 119.35,584.98 261.58,584.98l2927.69 0c0,-755.7 -19.41,-492.19 -383.35,-1380.32 -268.27,-654.65 -322.9,-913.27 -502.98,-1542.88l-185.08 -1174.57c6.64,-318.42 316.16,-603.22 423.86,-923.67 158.26,-470.87 89.22,-426.84 319.93,-1020.46 71.1,-182.94 124.4,-328.62 196.66,-508.81l682.92 -1721.77c41.6,-119.5 66.82,-193.13 -58.13,-193.13l-2821.87 0c-130.06,0 -172.67,239.52 -267.23,473.51l-385.2 1166.83c-28.48,98.97 -65.28,194.25 -92.92,295.09 -201.58,735.26 -254.82,1171.36 -369.72,1923.05l-61.03 872.55c-4.62,38.47 -23.2,84.03 -23.2,136.7z"/>
   <path class="fil0" d="M65275.05 13354.68l2927.69 0c0,-770.34 23.6,-396.34 -286.72,-1159.49 -275.5,-677.52 -313.95,-750.26 -529.25,-1481.33 -90.39,-306.91 -251.84,-1144.89 -244.81,-1451.16 9.12,-397.37 306.87,-566.81 411.59,-931.11 53.11,-184.77 109.33,-365.86 146.07,-524.11 105.19,-453.14 1082.88,-2679.43 1102.76,-2918.41l-2998.23 0c-451.36,853.02 -828.08,2506.78 -993.01,3451.44l-99.73 1205.59c0.45,267.86 -27.85,318.78 -36.07,526.94l150.12 1791.19 230.71 1039.13c43.55,159.05 54.51,451.32 218.88,451.32z"/>
   <path class="fil0" d="M48661.29 4606.89c0,738.52 -470.96,297.91 -713.42,556.42l-168.41 290.14c0,128.61 105.82,63.32 105.82,317.46 0,291.63 -323.75,-27.95 -355.46,279.46l-76.85 558.07c-66.83,337.89 -172.26,715.15 -167.57,1137.54 4.95,446.21 -95.58,572.61 -196.44,1108.68l-277.82 1662.22c-34.84,187.77 -41.37,417.86 -57.67,612.52l-266.55 1675.94c-81.51,341.83 -142.47,237.59 843.62,363.33 576.19,73.48 1849.46,25.86 2177.31,-131.45l35.28 -1128.75c16.6,-663.85 118.8,-996.76 175.92,-1552.47 25.9,-251.88 149.09,-712.86 224.88,-974.41 25.5,-88 30.22,-157.42 53.39,-228.8 164.78,-507.61 35.65,-399.36 -4.95,-610.94 -10.53,-54.86 7.44,-144.38 8.98,-265.12 4.79,-376.48 174.34,-683.17 120.07,-1035.45 -55.12,-357.87 -168.98,-191.48 -190.29,-447.44l282.19 0c37.03,-444.96 21.74,-1018.05 104.56,-1374.87l1.26 -706.26c0,-108.43 105.51,-98.61 -30.98,-124.84l-709.76 19.02c-256.14,0 -786.83,-46.83 -917.11,0z"/>
   <path class="fil0" d="M42911.74 5700.36c0,972.74 -40.23,729.88 369.79,900.04 434.95,180.51 653.13,847.02 653.13,1392.73 0,575.95 100.99,683.68 -367.28,973.1 -126.96,78.47 -407.93,140.9 -585.1,155.65 0,445.56 -84.42,1014.69 -9.28,1562.24 75.22,548.07 -264.54,377.52 785.3,377.79 1080.09,0.28 1261.26,29.19 2066.98,-507.97 521.74,-347.83 456.59,-258.01 634.18,-1058.94 210.72,-950.32 338.35,-2341.74 -102.18,-3289.57 -102.23,-219.94 -181.34,-313.89 -316.19,-495.1 -337.8,-453.91 -908,-789.05 -1443.82,-954.77 -352.52,-109.02 -1050.11,-211.35 -1403.35,-219.22 -82.7,354.98 -282.18,735 -282.18,1164.02z"/>
   <path class="fil0" d="M1183.35 13495.77l0 1834.22c0,157.38 226.51,72.57 563.46,68.86 142.64,-1.57 240.23,27.19 340.62,20.22l1530.76 -16.27c342.18,20.94 276.69,-28.99 607.29,17.95 25.22,3.58 61.06,9.58 131.92,13.3l1022.33 38.18c996.69,29.81 806.07,158.78 752.45,-454.27 -19.16,-219.09 -0.08,-451.18 -12.36,-676.14 -8.07,-147.95 -43.61,-366.04 -62.51,-570.3 -38.96,-421.13 58.23,-335.01 -593.84,-157.89l-294.23 93.78c-514.23,-344.34 -1842.5,-191.32 -2450.47,-119.91l-992.26 -35.24c-208.06,-30.37 -313.85,-56.49 -543.16,-56.49z"/>
   <path class="fil0" d="M6721.27 13566.32c-79.16,339.77 -35.27,1415.71 -35.27,1834.21 0,123.32 86.4,108.01 207.72,109.77 93.23,1.35 229.44,1.27 321.54,-3.77l1184.48 -56.54c524.2,78.01 754.37,56.36 1284.49,56.36 166.54,0 67.96,-139.94 157.03,-618.98 30.52,-164.17 106.44,-830.96 7.82,-1027.34 -55.9,-111.3 -63.24,-81.1 -170.6,-146.87l-382.26 -252.66c-162.96,43.51 -83.76,94.46 -226.09,126.89 -118.21,26.93 -175.79,-60.29 -261.23,-98.37 -78.5,-34.99 -815.37,6.75 -1064.7,6.75 -153.35,0 -473.44,-48.96 -553.41,-25.78 -165.92,48.09 11.09,75.93 -249.82,88.39 -7.65,0.37 -17.58,0.29 -25.68,0.63l-194.02 7.31z"/>
   <path class="fil0" d="M25839.43 13566.32c-61.32,263.2 -35.69,1815.37 -18.62,1872.11 23,76.48 -14.87,45.97 87.51,66.77 19.01,3.86 148.19,3.59 176.07,3.36l1371.74 -68.53c402.08,44.92 1036.93,127.77 1452.08,31.05 0,-294.01 63.95,-541.16 71.69,-810.15l-1.14 -847.7c-339.67,-179.73 -311.8,-183.6 -564.37,-352.73 -156.99,41.91 -105.99,116.44 -251.26,130.99 -110.47,11.07 -177.54,-65.9 -272.43,-101.26 -101.56,-37.85 -856.42,5.54 -1134.16,5.54 -192.15,0 -333.25,-59.71 -468.23,-12.09 -82.45,29.08 -89.8,56.5 -174.95,74.38 -87.3,18.33 -184.18,8.26 -273.93,8.26z"/>
   <path class="fil0" d="M65768.87 15471.08l1739.35 -97.5c321.08,-44.93 150.18,97.5 870.88,97.5 113.6,0 161.37,-33.75 219.35,-98.11 355.99,-395.13 -23.8,-1570.42 -148.8,-1806.65 -124.06,10.32 -317.14,105.82 -317.46,105.82 -313.86,0 -263.79,-211.68 -1340.39,-211.64 -258.68,0.01 -517.6,-1.1 -776.25,0.23 -291,1.5 -441.42,-35.5 -740.5,-35.5l80.58 554.33c18.6,141.29 57.45,390.21 99.09,535.83 79.18,276.82 187.18,691.06 314.15,955.69z"/>
   <path class="fil0" d="M22559.01 15471.08l1744.6 -92.25c315.15,-48.6 313.4,92.25 512.89,92.25 431.3,0 806.02,87.2 703.91,-842.58 -54.09,-492.44 -221.48,-775.29 -245.35,-1062.18 -314.48,26.17 -249.64,170.82 -693.19,23.02 -683.01,-227.59 -1345.58,-93.54 -2123.94,-133.93 -184.19,-9.56 -160.47,15.71 -357.48,-30.18 0,547 221.29,1551.37 458.56,2045.85z"/>
   <path class="fil0" d="M12223.91 13636.87c-116.15,0 -165.19,-48.75 -258.72,-94.02 -212.84,-103.01 -621.49,-223.45 -870.02,-223.45 -152,0 -170.32,466.57 -202.48,714.64 -30.92,238.57 -31.08,685.57 -24.42,862.95 16.58,441.28 -74.84,531.82 423.52,453.51l1743.88 -92.9c172.01,-8.93 139.4,-29.98 351.28,-32 425.21,-4.05 214.15,-17.84 540.45,-837.63 200.26,-503.13 201.27,-625.38 201.27,-1103.84 -549.45,0 -1015.43,48.82 -1544.6,219.06 -114.7,36.9 -232.11,133.68 -360.16,133.68z"/>
   <path class="fil0" d="M31377.35 13636.87c-309.67,0 -746.02,-412.45 -1305.12,-282.19 0,616.41 -170.88,900.8 -74.85,1838.52 32.95,321.82 155.19,136.24 638.02,135.58 787.22,-1.08 1363.34,-104.61 2117.61,-104.61l382.54 -1134.22c132.77,-354.06 111.29,-343.18 111.29,-700 0,-272.63 -1225.14,22.31 -1434.79,81.98l-434.7 164.94z"/>
   <path class="fil0" d="M54305.03 15365.26c176.13,0 194.32,-34.32 386.6,-36.68 139.99,-1.72 286.56,6.72 425.84,2.56l845.41 -36.43c328.79,0 1012.97,10.71 1269.84,70.55 0,-219.17 -58.8,-187.03 -58.32,-313.23 0.04,-8.78 58.32,-276.31 58.32,-674.42 0,-417.1 -98.89,-731.8 -317.46,-1058.21 -363.94,243.71 -919.82,5.11 -1392.08,195.23 -148.62,59.83 98.89,118.99 -463.57,-67.97 -146.99,-48.85 -231.4,-73.68 -398.68,-97.93 -444.99,-64.5 -474.06,-16.71 -489.04,175.45l27.28 924.02c-0.82,361.17 38.81,629.26 105.86,917.06z"/>
   <path class="fil0" d="M61571.34 13460.5c-27.31,128.95 -19.04,259.63 -49.76,479.25 -83.56,597.28 -76.93,599.43 4.53,1153.28 22.49,152.94 5.93,378.05 151.05,378.05l2716.05 0 23.38 -720.59c1.57,-76.33 17.95,-257.64 -2.8,-393 -19.87,-129.57 -15.25,-671.29 -55.85,-755.9 -68.6,36.3 -65.83,29.59 -131,80.64 -202.71,158.8 -26.19,118.83 -605.32,-49.78 -436.78,-127.17 -1666.1,-356.29 -2050.28,-171.95z"/>
   <path class="fil0" d="M46192.16 15188.89c521.16,275.77 453.98,70.55 1093.47,70.55l564.38 0c290.31,0 415.15,70.55 705.46,70.55 12.35,-148.38 47.7,-249.03 141.1,-317.46 224.27,59.88 72.34,308.85 458.55,317.46 0,-945.08 211.64,-1402.13 211.64,-1834.22 -306.24,0 -324.09,21.95 -626.97,149.04 -126.66,53.15 -22.5,49.14 -184.32,62.6 4,-179.23 99.84,-225.38 39.35,-285.87 -53.4,-53.39 -130.7,38.96 -427.35,38.96 -326.1,0 -228.09,-168.88 -564.38,-176.37 -17.37,208.83 -98.39,310.56 -141.09,493.83 -232.57,-19.35 -67.21,-106.95 -428.83,-347.19 -193.74,-128.71 -354.7,-109.18 -558.82,-217.19 -56.33,117.39 -277.9,1782.47 -282.19,1975.31z"/>
   <path class="fil0" d="M58361.47 13354.68c-86.42,0 -169.71,20.41 -214.34,68.35 -189.43,203.52 81.7,270.15 12.58,752.32l-80.43 1189.91 2504.83 -124.67c163.92,-24.94 126.39,38.88 246.41,-298.7 172.81,-486.08 218.46,-890.91 145.83,-1416.44 -53.84,-389.59 -104.87,-64.67 -991.1,-63.74 -341.3,0.35 -932.43,27.49 -1246.8,-25.46 -98.3,-16.56 -343.84,-81.57 -376.98,-81.57z"/>
   <path class="fil0" d="M15222.15 14483.43c0,308.95 -133.41,725.2 9.93,758.27 265.64,61.28 1162.65,72.21 1434.42,51.16l764.03 -82.54c104.53,-27.07 183.96,-103.72 230.49,-192.78 224.25,-429.19 25.92,-1137.57 -62.95,-1569.65 -43.55,-211.74 -6.59,-164.59 -506.42,-163.77 -370.76,0.6 -1682.01,-63.53 -1814.19,54.36 -111.9,99.81 -129.08,375.03 -106.57,524.28 29.51,195.7 51.26,424.14 51.26,620.67z"/>
   <path class="fil0" d="M34340.31 14448.15c0,293.15 -35.27,489.19 -35.27,811.29 590.44,0 967.29,104.34 1578.11,26.09 715.76,-91.69 1193.96,33.94 917.3,-1357.48 -28.46,-143.13 -96.83,-443.84 -96.83,-608.65 -544.44,-126.84 -1261.47,31.19 -1864.85,-40.93 -448.54,-53.61 -469.56,1.67 -536.74,287.17 -55.43,235.56 38.28,587.49 38.28,882.51z"/>
   <path class="fil1" d="M47885.28 4712.71c0,226.4 95.8,211.64 317.46,211.64 57.1,-213.85 189.67,-61.87 282.19,-317.46 -318.12,0 -599.65,-61.34 -599.65,105.82z"/>
   <path class="fil2" d="M50954.06 13742.69c18.16,68.47 6.48,54.56 35.28,105.82 103.12,-24.69 50.81,4.53 105.82,-70.55 -64.34,-31.9 -44.13,-27.21 -141.1,-35.27z"/>
  </g>
 </g>
</svg>
