<?xml version="1.0" encoding="UTF-8"?>
<!DOCTYPE svg PUBLIC "-//W3C//DTD SVG 1.1//EN" "http://www.w3.org/Graphics/SVG/1.1/DTD/svg11.dtd">
<!-- Creator: CorelDRAW 2020 (64 Bit) -->
<svg xmlns="http://www.w3.org/2000/svg" xml:space="preserve" width="66.754mm" height="8.427mm" version="1.1" style="shape-rendering:geometricPrecision; text-rendering:geometricPrecision; image-rendering:optimizeQuality; fill-rule:evenodd; clip-rule:evenodd"
viewBox="0 0 6675.4 842.7"
 xmlns:xlink="http://www.w3.org/1999/xlink"
 xmlns:xodm="http://www.corel.com/coreldraw/odm/2003">
 <defs>
  <style type="text/css">
   <![CDATA[
    .fil0 {fill:#FEFEFE;fill-rule:nonzero}
   ]]>
  </style>
 </defs>
 <g id="Camada_x0020_1">
  <metadata id="CorelCorpID_0Corel-Layer"/>
  <path class="fil0" d="M153.08 27.85c5.65,0.57 11.29,-2.25 16.94,-8.46l82.97 253.15 89.75 -234.53 100.75 7.62c14.68,-1.13 30.2,-2.11 46.57,-2.96 16.37,-0.85 33.87,-1.83 52.49,-2.96 -4.51,25.4 -7.76,50.94 -9.73,76.62 -1.98,25.68 -2.4,52.07 -1.27,79.16l0 26.25 0 26.25 0 62.65 0 96.52 9.31 26.25c-10.16,56.44 -13.27,124.18 -9.31,203.2l0 26.25 -44.03 8.46c-40.64,5.08 -87.49,2.26 -140.55,-8.46l-11.01 -241.3 -77.04 259.08 -66.89 -259.08c-2.82,38.94 -4.51,74.78 -5.08,107.52 -0.56,32.74 -0.28,62.66 0.85,89.75l0 26.25c-41.21,9.03 -93.98,11.85 -158.33,8.46l-27.09 0 0 -220.13 -8.47 -16.93c3.95,-15.81 6.63,-33.31 8.04,-52.5 1.41,-19.19 1.56,-40.07 0.43,-62.65l0 -141.4c4.51,-35.56 1.69,-76.48 -8.47,-122.76 21.45,-4.52 45.3,-7.48 71.54,-8.89 26.25,-1.41 55.46,-1.56 87.63,-0.43zm-150.7 783.17c-5.08,-40.64 -1.98,-90.03 9.31,-148.16 29.92,-2.83 61.81,0 95.67,8.46 16.94,-4.51 40.36,-7.34 70.28,-8.46l9.31 140.54 -157.48 7.62 -27.09 0zm341.2 -104.14l9.32 -26.24 165.95 0c25.96,98.21 17.21,144.49 -26.25,138.85 -44.59,10.72 -94.26,10.72 -149.02,0 6.78,-35 6.78,-72.53 0,-112.61zm624 -672.25c51.93,6.77 112.61,3.95 182.03,-8.47l43.18 8.47 0 104.14 0 26.24 0 147.32 0 34.72 0 34.71 0 34.72 0 156.63 0 34.71 0 43.18 -173.56 0 -26.25 0 -25.4 0c3.95,-24.83 0.84,-53.9 -9.32,-87.2 3.96,-14.12 6.64,-29.07 8.05,-44.88 1.41,-15.8 1.83,-32.45 1.27,-49.95l0 -78.74 -9.32 -25.4c4.52,-19.76 7.48,-42.05 8.89,-66.89 1.42,-24.83 1.56,-51.93 0.43,-81.28l0 -182.03zm-382.7 26.24c24.84,7.91 36.41,-0.84 34.72,-26.24l191.34 0c-4.51,40.64 -4.51,92.85 0,156.63l0 25.4c-8.46,46.85 -8.46,101.88 0,165.1l0 26.25 0 34.71 0 34.72c1.7,31.6 -1.12,69.14 -8.46,112.6l8.46 52.5c-27.65,4.51 -57.99,7.62 -91.01,9.31 -33.02,1.69 -69.29,1.41 -108.8,-0.85l-26.25 0 0 -590.13zm0 737.45l0 -138.85c55.88,13.55 119.67,13.55 191.35,0l77.89 8.47 17.78 9.31 60.96 -17.78c2.83,19.19 4.94,41.06 6.35,65.62 1.42,24.55 2.12,52.07 2.12,82.55 -19.75,-2.83 -43.32,-5.08 -70.7,-6.78 -27.37,-1.69 -58.84,-2.54 -94.4,-2.54l-191.35 0zm382.7 -130.38c12.98,2.82 24.55,0 34.71,-8.47 27.1,3.39 61.81,3.39 104.14,0l25.4 8.47c6.21,1.13 12.14,-1.7 17.78,-8.47l43.18 26.25c3.39,35.56 0.57,76.2 -8.46,121.92 -28.79,2.25 -63.5,-0.85 -104.14,-9.32 -15.24,2.83 -32.18,4.94 -50.8,6.35 -18.63,1.41 -39.23,2.4 -61.81,2.97 -2.82,-37.82 -2.82,-84.39 0,-139.7zm-330.2 113.45c38.38,-5.08 41.2,-13.83 8.46,-26.25l-8.46 26.25zm600.28 -441.96l0 -295.49 156.64 0 26.24 0 0 173.57 0 26.24 0 34.72 0 173.57 0 26.24 0 34.72 -156.63 0 -26.25 0 -8.46 -156.64 8.46 -16.93zm199.82 -156.64l0 -138.85 156.63 0 26.25 0c25.4,-1.13 48.54,1.69 69.43,8.47l0 104.14 0 26.24 -156.64 0 -34.71 0 -26.25 0 -34.71 0zm0 330.21l0 -191.35 173.56 0 26.25 0 34.72 0 26.24 0 0 173.57 0 26.24 0 34.72 0 26.24 0 43.18 0 26.25 -34.71 0 -60.96 0 -69.43 0 0 -138.85 -95.67 0zm-199.82 295.48l0 -139.7 174.42 0 8.46 17.78 0 121.92 -156.63 0 -26.25 0zm199.82 0l0 -139.7 173.56 0 26.25 0 34.72 0 26.24 0 0 113.46 0 26.24 -112.61 0 -148.16 0zm314.96 -521.55l0 -241.3 103.29 0 26.25 0 146.47 0 34.72 0 111.76 0c10.16,2.83 18.91,8.47 26.25,16.94l0 121.07 -155.79 0 -33.87 0 -26.25 0 -33.86 0 0 103.29 0 26.25 171.87 0 9.31 16.93 0 111.77 0 26.24 -155.78 0 -25.4 0 0 111.76 0 26.25 0 26.25 0 25.4c-23.71,2.25 -49.96,2.54 -78.74,0.84 -28.79,-1.69 -60.12,-4.8 -93.98,-9.31l-26.25 0c3.39,-50.24 0.56,-107.81 -8.47,-172.72l0 -129.54 8.47 -60.12zm0 517.32l0 -138.01 172.72 0 26.25 0 33.86 0 26.25 0 43.18 0 25.4 0 121.08 0 0 111.76 0 26.25 -172.73 0 -25.4 0 -34.71 0 -26.25 0 -42.33 0 -26.25 0 -121.07 0zm862.76 -769.62c51.93,6.77 112.61,3.95 182.03,-8.47l43.18 8.47 0 104.14 0 26.24 0 147.32 0 34.72 0 34.71 0 34.72 0 156.63 0 34.71 0 43.18 -173.56 0 -26.25 0 -25.4 0c3.95,-24.83 0.84,-53.9 -9.32,-87.2 3.96,-14.12 6.64,-29.07 8.05,-44.88 1.41,-15.8 1.83,-32.45 1.27,-49.95l0 -78.74 -9.32 -25.4c4.52,-19.76 7.48,-42.05 8.89,-66.89 1.42,-24.83 1.56,-51.93 0.43,-81.28l0 -182.03zm-382.7 26.24c24.84,7.91 36.41,-0.84 34.72,-26.24l191.34 0c-4.51,40.64 -4.51,92.85 0,156.63l0 25.4c-8.46,46.85 -8.46,101.88 0,165.1l0 26.25 0 34.71 0 34.72c1.7,31.6 -1.12,69.14 -8.46,112.6l8.46 52.5c-27.65,4.51 -57.99,7.62 -91.01,9.31 -33.02,1.69 -69.29,1.41 -108.8,-0.85l-26.25 0 0 -590.13zm0 737.45l0 -138.85c55.88,13.55 119.67,13.55 191.35,0l77.89 8.47 17.78 9.31 60.96 -17.78c2.83,19.19 4.94,41.06 6.35,65.62 1.42,24.55 2.12,52.07 2.12,82.55 -19.75,-2.83 -43.32,-5.08 -70.7,-6.78 -27.37,-1.69 -58.84,-2.54 -94.4,-2.54l-191.35 0zm382.7 -130.38c12.98,2.82 24.55,0 34.71,-8.47 27.1,3.39 61.81,3.39 104.14,0l25.4 8.47c6.21,1.13 12.14,-1.7 17.78,-8.47l43.18 26.25c3.39,35.56 0.57,76.2 -8.46,121.92 -28.79,2.25 -63.5,-0.85 -104.14,-9.32 -15.24,2.83 -32.18,4.94 -50.8,6.35 -18.63,1.41 -39.23,2.4 -61.81,2.97 -2.82,-37.82 -2.82,-84.39 0,-139.7zm-330.2 113.45c38.38,-5.08 41.2,-13.83 8.46,-26.25l-8.46 26.25zm739.99 -751.84c11.85,0.56 25.96,-2.26 42.33,-8.47 48.54,8.47 112.33,11.29 191.35,8.47l-8.47 34.71c86.93,-61.52 173.57,-47.13 259.93,43.18 2.82,33.3 11.57,71.12 26.25,113.45 -3.96,19.76 -6.64,41.07 -8.05,63.93 -1.41,22.86 -1.55,47.83 -0.42,74.93l0 26.24 0 25.41 0 60.96 0 26.24 0 34.72 0 26.24 0 25.4 0 26.25 0 34.71 -113.46 0 -25.4 0 -69.42 0 0 -451.27c-35,-23.71 -55.32,-64.35 -60.96,-121.92 2.26,20.32 2.54,43.46 0.84,69.42 -1.69,25.97 -4.79,55.04 -9.31,87.21l8.47 34.71 0 26.25 0 34.71 0 25.4 0 35.56 0 112.61 0 43.18 0 95.68c-27.66,4.51 -58,7.62 -91.02,9.31 -33.02,1.69 -69.29,1.41 -108.8,-0.85l-26.24 0 0 -338.67c-0.57,-8.46 2.54,-17.21 9.31,-26.24l-16.93 -16.94c8.46,-50.23 11,-114.01 7.62,-191.34l-7.62 -43.18zm16.93 773.01c-8.47,-40.64 -11.57,-90.03 -9.31,-148.17 55.88,9.59 122.48,9.59 199.81,0l26.25 0 0 148.17 -87.21 0c-40.08,-5.65 -83.26,-5.65 -129.54,0zm225.21 0l0 -148.17c37.26,-7.34 71.97,-1.41 104.14,17.78 15.81,-9.03 33.31,-9.03 52.5,0 5.08,-1.69 10.72,-7.62 16.93,-17.78l60.96 9.31 26.25 -9.31 -8.47 34.71c-45.15,95.96 -129.26,133.78 -252.31,113.46zm308.19 -689.19l69.43 -60.96 173.57 0 26.24 0 34.72 0 26.24 0 0 173.56 -113.45 0 -25.4 0 8.47 147.32 0 26.25 0 60.96 -8.47 26.25 8.47 43.18c-4.52,38.95 -4.52,85.23 0,138.85 -16.94,4.52 -40.08,7.34 -69.43,8.47l-156.63 0 0 -477.52c9.59,-23.14 18.34,-51.93 26.24,-86.36zm355.6 130.38l0 -191.34c184.58,8.46 259.93,130.1 226.07,364.91l0 173.57 0 25.4 0 34.71 0 26.25 -173.57 0 -26.25 0 -26.25 0 0 -259.93 -8.46 -26.24c9.03,-38.95 11.85,-88.06 8.46,-147.33zm-129.54 580.82c-124.17,20.88 -205.17,-25.4 -242.99,-138.85 48.54,13.54 103.29,13.54 164.25,0l26.25 9.31 60.96 0 26.25 8.47 34.71 -8.47 25.4 -9.31c2.82,19.19 5.08,40.92 6.77,65.19 1.7,24.27 2.54,51.65 2.54,82.13 -26.52,-5.65 -61.24,-8.47 -104.14,-8.47zm129.54 -129.54c13.55,2.26 25.4,-0.85 35.57,-9.31 42.89,7.33 97.64,7.33 164.25,0 -6.77,41.2 -26.81,79.02 -60.11,113.45l8.46 16.09c-36.12,-0.57 -85.51,5.36 -148.17,17.78l0 -138.01zm448.75 -640.93c11.85,0.56 25.96,-2.26 42.33,-8.47 46.85,8.47 108.66,11.29 185.42,8.47l-8.47 33.87 25.4 -33.87c199.82,-9.03 278.56,95.11 236.23,312.42l-84.67 50.8c88.62,32.18 119.66,110.92 93.13,236.22l-110.07 0 -25.4 0 -66.88 0c19.75,-92.57 2.82,-157.48 -50.8,-194.73l0 -117.69c85.23,-46.28 85.23,-99.62 0,-160.02 3.95,-24.27 1.13,-52.49 -8.47,-84.67 2.26,19.76 2.54,42.2 0.85,67.31 -1.7,25.12 -4.8,53.2 -9.32,84.25l8.47 33.86 0 25.4 0 33.87 0 25.4 0 33.87 0 109.22 0 42.33 0 93.14c-27.09,4.51 -56.73,7.62 -88.9,9.31 -32.17,1.69 -67.17,1.41 -104.99,-0.85l-25.4 0 0 -329.35c-1.13,-9.6 1.7,-18.06 8.47,-25.4l-16.93 -16.94c9.03,-46.84 11.85,-108.65 8.46,-185.42l-8.46 -42.33zm16.93 751c-3.95,-19.19 -6.63,-40.64 -8.04,-64.35 -1.41,-23.71 -1.56,-49.95 -0.43,-78.74 27.1,-2.82 55.04,2.82 83.82,16.93 28.79,-11.29 59.84,-14.39 93.14,-9.31l16.93 -7.62 16.93 33.87c7.34,32.17 7.34,62.93 0,92.28l8.47 16.94c-54.19,-7.34 -124.46,-7.34 -210.82,0zm270.09 -126.16l8.46 -16.93c57.01,13.55 121.64,13.55 193.89,0 10.16,46.85 4.52,91.72 -16.93,134.62l-152.4 8.47 -33.02 0 8.46 -101.6 -8.46 -24.56zm257.38 -565.57l69.43 -60.96 173.57 0 26.24 0 34.72 0 26.24 0 0 173.56 -113.45 0 -25.4 0 8.47 147.32 0 26.25 0 60.96 -8.47 26.25 8.47 43.18c-4.52,38.95 -4.52,85.23 0,138.85 -16.94,4.52 -40.08,7.34 -69.43,8.47l-156.63 0 0 -477.52c9.59,-23.14 18.34,-51.93 26.24,-86.36zm355.6 130.38l0 -191.34c184.58,8.46 259.93,130.1 226.07,364.91l0 173.57 0 25.4 0 34.71 0 26.25 -173.57 0 -26.25 0 -26.25 0 0 -259.93 -8.46 -26.24c9.03,-38.95 11.85,-88.06 8.46,-147.33zm-129.54 580.82c-124.17,20.88 -205.17,-25.4 -242.99,-138.85 48.54,13.54 103.29,13.54 164.25,0l26.25 9.31 60.96 0 26.25 8.47 34.71 -8.47 25.4 -9.31c2.82,19.19 5.08,40.92 6.77,65.19 1.7,24.27 2.54,51.65 2.54,82.13 -26.52,-5.65 -61.24,-8.47 -104.14,-8.47zm129.54 -129.54c13.55,2.26 25.4,-0.85 35.57,-9.31 42.89,7.33 97.64,7.33 164.25,0 -6.77,41.2 -26.81,79.02 -60.11,113.45l8.46 16.09c-36.12,-0.57 -85.51,5.36 -148.17,17.78l0 -138.01zm280.26 -355.6l0 -295.49 104.14 0 26.24 0 147.32 0 34.72 0 113.45 0c10.16,2.82 18.63,8.75 25.4,17.78l0 121.07 -155.79 0 -34.71 0 -26.25 0 -34.71 0 0 173.57 0 26.25 0 34.71 0 173.57 0 69.43 -26.25 0c-138.85,16.93 -196.71,-14.96 -173.56,-95.68 1.69,-27.09 -1.13,-55.88 -8.47,-86.36l0 -121.92 8.47 -16.93zm0 469.05l0 -139.7 173.56 0 26.25 0 34.71 0 26.25 0 43.18 0 26.25 0 121.07 0 0 113.46 0 26.24 -173.57 0 -26.24 0 -34.72 0 -25.4 0 -44.02 0 -25.4 0 -121.92 0zm572.35 -148.16l0 -607.91 154.09 0 33.87 0 26.24 0 0 120.22 0 144.78 0 43.18 0 265.86 0 25.4c-54.75,10.16 -126.15,12.98 -214.2,8.47zm265 0c-59.26,-190.79 -44.87,-393.42 43.18,-607.91l154.1 0 34.71 0 25.4 0 -77.04 197.27 -8.47 33.87 -8.47 26.24 -16.93 25.4 -9.31 25.4c3.95,79.59 29.63,168.21 77.04,265.86l0 33.87 -154.09 0 -33.87 0 -26.25 0zm-256.54 153.24c-11.29,-42.89 -11.29,-91.15 0,-144.78 55.32,-5.08 115.15,3.67 179.5,26.25l16.93 -16.93 0 25.4c3.95,30.48 3.95,67.17 0,110.06l-171.03 0 -25.4 0zm299.72 0c-9.03,-19.19 -16.36,-40.78 -22.01,-64.77 -5.64,-23.99 -9.88,-50.66 -12.7,-80.01l138.01 0 59.27 16.94 26.24 -7.62c40.08,114.58 22.86,157.19 -51.64,127.84l-137.17 7.62zm-8.46 -75.35c34.43,-6.77 34.43,-15.52 0,-26.25l0 26.25z"/>
 </g>
</svg>
