<?xml version="1.0" encoding="UTF-8"?>
<!DOCTYPE svg PUBLIC "-//W3C//DTD SVG 1.1//EN" "http://www.w3.org/Graphics/SVG/1.1/DTD/svg11.dtd">
<!-- Creator: CorelDRAW 2020 (64 Bit) -->
<svg xmlns="http://www.w3.org/2000/svg" xml:space="preserve" width="18.959mm" height="7.97mm" version="1.1" style="shape-rendering:geometricPrecision; text-rendering:geometricPrecision; image-rendering:optimizeQuality; fill-rule:evenodd; clip-rule:evenodd"
viewBox="0 0 1895.9 797"
 xmlns:xlink="http://www.w3.org/1999/xlink"
 xmlns:xodm="http://www.corel.com/coreldraw/odm/2003">
 <defs>
  <style type="text/css">
   <![CDATA[
    .fil0 {fill:#FEFEFE;fill-rule:nonzero}
   ]]>
  </style>
 </defs>
 <g id="Camada_x0020_1">
  <metadata id="CorelCorpID_0Corel-Layer"/>
  <g id="_1785817285776">
   <path class="fil0" d="M556.49 116.61l0 -108.23 195.34 0c305.71,66.48 479.11,331.93 520.02,796.52l-229.15 0c-3.48,-285.74 -99.16,-478.28 -287.08,-577.6l-1.97 210.36c-51.48,-139.25 -117.31,-246.16 -197.16,-321.05zm-556.81 677.24l0 -785.95 281.21 0c287.23,88.11 448.71,352.52 484.47,793.21l-245.16 0c0,-290.04 -101.96,-485.88 -305.87,-587.83l0 580.57 -214.65 0z"/>
   <path class="fil0" d="M877.54 7.9l992.68 0 0 210.08 -57.96 0c-45.91,125.66 -117.17,221.03 -213.79,286.26l297.1 300.66 -329.71 0 -177.45 -195.54 -88.17 21.17c-2.73,-41.55 -8.78,-83.94 -18.44,-126.64 -5.8,-25.64 -12.72,-50.62 -20.67,-74.9 141.12,-21.47 245.09,-91.8 312,-211.01l-418.77 0c-19.37,-26.63 -40.2,-51.26 -62.21,-73.69 -53.79,-59.43 -125.31,-104.9 -214.61,-136.39z"/>
  </g>
 </g>
</svg>
