<?xml version="1.0" encoding="UTF-8"?>
<!DOCTYPE svg PUBLIC "-//W3C//DTD SVG 1.1//EN" "http://www.w3.org/Graphics/SVG/1.1/DTD/svg11.dtd">
<!-- Creator: CorelDRAW 2020 (64 Bit) -->
<svg xmlns="http://www.w3.org/2000/svg" xml:space="preserve" width="70.028mm" height="97.924mm" version="1.1" style="shape-rendering:geometricPrecision; text-rendering:geometricPrecision; image-rendering:optimizeQuality; fill-rule:evenodd; clip-rule:evenodd"
viewBox="0 0 7002.8 9792.4"
 xmlns:xlink="http://www.w3.org/1999/xlink"
 xmlns:xodm="http://www.corel.com/coreldraw/odm/2003">
 <defs>
  <style type="text/css">
   <![CDATA[
    .fil0 {fill:#FEFEFE}
   ]]>
  </style>
 </defs>
 <g id="Camada_x0020_1">
  <metadata id="CorelCorpID_0Corel-Layer"/>
  <g id="_1973737308656">
   <path class="fil0" d="M-7.13 4896.73l2481.46 2446.31c212.71,221.86 430.25,453.08 607.09,627.14 216.21,212.83 409.24,397.06 624.35,610.49 215.11,213.42 407.05,397.81 623.4,611.15 157.79,155.6 476.68,495.96 631.95,601.09l1016.39 -1016.43c202.46,-199.66 911.65,-845.18 1016.37,-1021.84l-2881.7 -2857.91 1061.38 -1052.14c556.36,-547.9 1236.28,-1316.34 1822.11,-1806.46 -84.8,-146.87 -1254.69,-1252.13 -1535.72,-1526.73 -178.33,-174.25 -310.93,-371.47 -498.83,-510.85l-2487 2449.64c-212,220.17 -421.18,386.4 -636.73,598.96 -343.2,338.43 -1602.47,1559.18 -1844.52,1847.58z"/>
  </g>
 </g>
</svg>
